<mxfile host="app.diagrams.net" agent="Mozilla/5.0 (Windows NT 10.0; Win64; x64) AppleWebKit/537.36 (KHTML, like Gecko) Chrome/129.0.0.0 Safari/537.36" version="24.7.17">
  <diagram name="Page-1" id="-2V1_Z0kzhCrCeIVAv0n">
    <mxGraphModel dx="1967" dy="980" grid="0" gridSize="10" guides="1" tooltips="1" connect="1" arrows="1" fold="1" page="0" pageScale="1" pageWidth="850" pageHeight="1100" background="#333333" math="0" shadow="0">
      <root>
        <mxCell id="0" />
        <mxCell id="1" parent="0" />
        <mxCell id="AvySAY8Q2TeNi0YIKntH-2" value="AWS Cloud" style="sketch=0;outlineConnect=0;gradientColor=none;html=1;whiteSpace=wrap;fontSize=12;fontStyle=0;shape=mxgraph.aws4.group;grIcon=mxgraph.aws4.group_aws_cloud;strokeColor=#FFFFFF;fillColor=none;verticalAlign=top;align=left;spacingLeft=30;fontColor=#AAB7B8;dashed=0;strokeWidth=3;" parent="1" vertex="1">
          <mxGeometry x="-75" y="124" width="286" height="438" as="geometry" />
        </mxCell>
        <mxCell id="AvySAY8Q2TeNi0YIKntH-3" value="&lt;b&gt;&lt;font color=&quot;#ffffff&quot;&gt;US-West-1&lt;/font&gt;&lt;/b&gt;" style="text;html=1;align=center;verticalAlign=middle;whiteSpace=wrap;rounded=0;" parent="1" vertex="1">
          <mxGeometry x="-71" y="94" width="70" height="30" as="geometry" />
        </mxCell>
        <mxCell id="AvySAY8Q2TeNi0YIKntH-4" value="" style="sketch=0;outlineConnect=0;fontColor=#232F3E;gradientColor=none;fillColor=#FFFFFF;strokeColor=none;dashed=0;verticalLabelPosition=bottom;verticalAlign=top;align=center;html=1;fontSize=12;fontStyle=0;aspect=fixed;pointerEvents=1;shape=mxgraph.aws4.traditional_server;" parent="1" vertex="1">
          <mxGeometry x="130" y="367" width="45" height="78" as="geometry" />
        </mxCell>
        <mxCell id="AvySAY8Q2TeNi0YIKntH-9" style="edgeStyle=orthogonalEdgeStyle;rounded=0;orthogonalLoop=1;jettySize=auto;html=1;strokeColor=#FFFFFF;strokeWidth=2;flowAnimation=1;" parent="1" source="AvySAY8Q2TeNi0YIKntH-5" target="AvySAY8Q2TeNi0YIKntH-4" edge="1">
          <mxGeometry relative="1" as="geometry" />
        </mxCell>
        <mxCell id="AvySAY8Q2TeNi0YIKntH-5" value="" style="sketch=0;outlineConnect=0;fontColor=#232F3E;gradientColor=none;fillColor=#FFFFFF;strokeColor=none;dashed=0;verticalLabelPosition=bottom;verticalAlign=top;align=center;html=1;fontSize=12;fontStyle=0;aspect=fixed;pointerEvents=1;shape=mxgraph.aws4.disk;" parent="1" vertex="1">
          <mxGeometry x="-43" y="382" width="48" height="48" as="geometry" />
        </mxCell>
        <mxCell id="AvySAY8Q2TeNi0YIKntH-10" style="edgeStyle=orthogonalEdgeStyle;rounded=0;orthogonalLoop=1;jettySize=auto;html=1;strokeColor=#FFFFFF;strokeWidth=2;flowAnimation=1;" parent="1" source="AvySAY8Q2TeNi0YIKntH-6" target="AvySAY8Q2TeNi0YIKntH-4" edge="1">
          <mxGeometry relative="1" as="geometry">
            <Array as="points">
              <mxPoint x="56" y="489" />
              <mxPoint x="56" y="406" />
            </Array>
          </mxGeometry>
        </mxCell>
        <mxCell id="AvySAY8Q2TeNi0YIKntH-6" value="" style="sketch=0;outlineConnect=0;fontColor=#232F3E;gradientColor=none;fillColor=#FFFFFF;strokeColor=none;dashed=0;verticalLabelPosition=bottom;verticalAlign=top;align=center;html=1;fontSize=12;fontStyle=0;aspect=fixed;pointerEvents=1;shape=mxgraph.aws4.disk;" parent="1" vertex="1">
          <mxGeometry x="-43" y="465" width="48" height="48" as="geometry" />
        </mxCell>
        <mxCell id="AvySAY8Q2TeNi0YIKntH-8" style="edgeStyle=orthogonalEdgeStyle;rounded=0;orthogonalLoop=1;jettySize=auto;html=1;strokeColor=#FFFFFF;strokeWidth=2;flowAnimation=1;" parent="1" source="AvySAY8Q2TeNi0YIKntH-7" target="AvySAY8Q2TeNi0YIKntH-4" edge="1">
          <mxGeometry relative="1" as="geometry">
            <Array as="points">
              <mxPoint x="57" y="327" />
              <mxPoint x="57" y="404" />
            </Array>
          </mxGeometry>
        </mxCell>
        <mxCell id="AvySAY8Q2TeNi0YIKntH-7" value="" style="sketch=0;outlineConnect=0;fontColor=#232F3E;gradientColor=none;fillColor=#FFFFFF;strokeColor=none;dashed=0;verticalLabelPosition=bottom;verticalAlign=top;align=center;html=1;fontSize=12;fontStyle=0;aspect=fixed;pointerEvents=1;shape=mxgraph.aws4.disk;" parent="1" vertex="1">
          <mxGeometry x="-43" y="303" width="48" height="48" as="geometry" />
        </mxCell>
        <mxCell id="AvySAY8Q2TeNi0YIKntH-11" value="AWS Cloud" style="sketch=0;outlineConnect=0;gradientColor=none;html=1;whiteSpace=wrap;fontSize=12;fontStyle=0;shape=mxgraph.aws4.group;grIcon=mxgraph.aws4.group_aws_cloud;strokeColor=#FFFFFF;fillColor=none;verticalAlign=top;align=left;spacingLeft=30;fontColor=#AAB7B8;dashed=0;strokeWidth=3;" parent="1" vertex="1">
          <mxGeometry x="376" y="124" width="606" height="438" as="geometry" />
        </mxCell>
        <mxCell id="zQjQIO1lfrHbk5e2Ibf9-9" style="edgeStyle=orthogonalEdgeStyle;rounded=0;orthogonalLoop=1;jettySize=auto;html=1;strokeColor=#FFFFFF;strokeWidth=2;flowAnimation=1;" edge="1" parent="1" source="zQjQIO1lfrHbk5e2Ibf9-1" target="zQjQIO1lfrHbk5e2Ibf9-6">
          <mxGeometry relative="1" as="geometry" />
        </mxCell>
        <mxCell id="zQjQIO1lfrHbk5e2Ibf9-1" value="" style="sketch=0;points=[[0,0,0],[0.25,0,0],[0.5,0,0],[0.75,0,0],[1,0,0],[0,1,0],[0.25,1,0],[0.5,1,0],[0.75,1,0],[1,1,0],[0,0.25,0],[0,0.5,0],[0,0.75,0],[1,0.25,0],[1,0.5,0],[1,0.75,0]];outlineConnect=0;fontColor=#232F3E;fillColor=#7AA116;strokeColor=#ffffff;dashed=0;verticalLabelPosition=bottom;verticalAlign=top;align=center;html=1;fontSize=12;fontStyle=0;aspect=fixed;shape=mxgraph.aws4.resourceIcon;resIcon=mxgraph.aws4.cloudendure_disaster_recovery;" vertex="1" parent="1">
          <mxGeometry x="624" y="133" width="47" height="47" as="geometry" />
        </mxCell>
        <mxCell id="zQjQIO1lfrHbk5e2Ibf9-2" value="VPC" style="sketch=0;outlineConnect=0;gradientColor=none;html=1;whiteSpace=wrap;fontSize=12;fontStyle=0;shape=mxgraph.aws4.group;grIcon=mxgraph.aws4.group_vpc;strokeColor=#FFFFFF;fillColor=none;verticalAlign=top;align=left;spacingLeft=30;fontColor=#879196;dashed=0;strokeWidth=3;" vertex="1" parent="1">
          <mxGeometry x="399" y="192" width="566" height="356" as="geometry" />
        </mxCell>
        <mxCell id="zQjQIO1lfrHbk5e2Ibf9-3" value="&lt;b&gt;&lt;font color=&quot;#ffffff&quot;&gt;DRS region: US-east-1&lt;/font&gt;&lt;/b&gt;" style="text;html=1;align=center;verticalAlign=middle;whiteSpace=wrap;rounded=0;" vertex="1" parent="1">
          <mxGeometry x="373" y="94" width="148" height="30" as="geometry" />
        </mxCell>
        <mxCell id="zQjQIO1lfrHbk5e2Ibf9-4" value="Subnet" style="sketch=0;outlineConnect=0;gradientColor=none;html=1;whiteSpace=wrap;fontSize=12;fontStyle=0;shape=mxgraph.aws4.group;grIcon=mxgraph.aws4.group_subnet;strokeColor=#FFFFFF;fillColor=none;verticalAlign=top;align=left;spacingLeft=30;fontColor=#879196;dashed=0;strokeWidth=3;" vertex="1" parent="1">
          <mxGeometry x="417" y="228" width="526" height="307" as="geometry" />
        </mxCell>
        <mxCell id="zQjQIO1lfrHbk5e2Ibf9-21" style="edgeStyle=orthogonalEdgeStyle;rounded=0;orthogonalLoop=1;jettySize=auto;html=1;strokeWidth=2;strokeColor=#FFFFFF;flowAnimation=1;" edge="1" parent="1" source="zQjQIO1lfrHbk5e2Ibf9-5" target="zQjQIO1lfrHbk5e2Ibf9-13">
          <mxGeometry relative="1" as="geometry">
            <Array as="points">
              <mxPoint x="618" y="414" />
              <mxPoint x="618" y="327" />
            </Array>
          </mxGeometry>
        </mxCell>
        <mxCell id="zQjQIO1lfrHbk5e2Ibf9-22" style="edgeStyle=orthogonalEdgeStyle;rounded=0;orthogonalLoop=1;jettySize=auto;html=1;strokeWidth=2;strokeColor=#FFFFFF;flowAnimation=1;" edge="1" parent="1" source="zQjQIO1lfrHbk5e2Ibf9-5" target="zQjQIO1lfrHbk5e2Ibf9-11">
          <mxGeometry relative="1" as="geometry" />
        </mxCell>
        <mxCell id="zQjQIO1lfrHbk5e2Ibf9-23" style="edgeStyle=orthogonalEdgeStyle;rounded=0;orthogonalLoop=1;jettySize=auto;html=1;strokeWidth=2;strokeColor=#FFFFFF;flowAnimation=1;" edge="1" parent="1" source="zQjQIO1lfrHbk5e2Ibf9-5" target="zQjQIO1lfrHbk5e2Ibf9-12">
          <mxGeometry relative="1" as="geometry">
            <Array as="points">
              <mxPoint x="618" y="414" />
              <mxPoint x="618" y="489" />
            </Array>
          </mxGeometry>
        </mxCell>
        <mxCell id="zQjQIO1lfrHbk5e2Ibf9-5" value="" style="outlineConnect=0;dashed=0;verticalLabelPosition=bottom;verticalAlign=top;align=center;html=1;shape=mxgraph.aws3.instances;fillColor=#F58534;gradientColor=none;" vertex="1" parent="1">
          <mxGeometry x="528" y="382" width="60" height="63" as="geometry" />
        </mxCell>
        <mxCell id="zQjQIO1lfrHbk5e2Ibf9-6" value="" style="outlineConnect=0;dashed=0;verticalLabelPosition=bottom;verticalAlign=top;align=center;html=1;shape=mxgraph.aws3.instances;fillColor=#F58534;gradientColor=none;" vertex="1" parent="1">
          <mxGeometry x="771" y="374.5" width="60" height="63" as="geometry" />
        </mxCell>
        <mxCell id="zQjQIO1lfrHbk5e2Ibf9-7" style="edgeStyle=orthogonalEdgeStyle;rounded=0;orthogonalLoop=1;jettySize=auto;html=1;entryX=0;entryY=0.5;entryDx=0;entryDy=0;entryPerimeter=0;strokeColor=#FFFFFF;strokeWidth=2;flowAnimation=1;" edge="1" parent="1" source="AvySAY8Q2TeNi0YIKntH-4" target="zQjQIO1lfrHbk5e2Ibf9-1">
          <mxGeometry relative="1" as="geometry">
            <Array as="points">
              <mxPoint x="153" y="155" />
              <mxPoint x="352" y="155" />
            </Array>
          </mxGeometry>
        </mxCell>
        <mxCell id="zQjQIO1lfrHbk5e2Ibf9-8" value="" style="endArrow=classic;html=1;rounded=0;entryX=0.237;entryY=0.035;entryDx=0;entryDy=0;entryPerimeter=0;strokeColor=#FFFFFF;strokeWidth=2;flowAnimation=1;" edge="1" parent="1" target="zQjQIO1lfrHbk5e2Ibf9-5">
          <mxGeometry width="50" height="50" relative="1" as="geometry">
            <mxPoint x="539" y="156" as="sourcePoint" />
            <mxPoint x="539" y="311" as="targetPoint" />
          </mxGeometry>
        </mxCell>
        <mxCell id="zQjQIO1lfrHbk5e2Ibf9-11" value="" style="sketch=0;outlineConnect=0;fontColor=#232F3E;gradientColor=none;fillColor=#FFFFFF;strokeColor=none;dashed=0;verticalLabelPosition=bottom;verticalAlign=top;align=center;html=1;fontSize=12;fontStyle=0;aspect=fixed;pointerEvents=1;shape=mxgraph.aws4.disk;" vertex="1" parent="1">
          <mxGeometry x="634" y="389.5" width="48" height="48" as="geometry" />
        </mxCell>
        <mxCell id="zQjQIO1lfrHbk5e2Ibf9-12" value="" style="sketch=0;outlineConnect=0;fontColor=#232F3E;gradientColor=none;fillColor=#FFFFFF;strokeColor=none;dashed=0;verticalLabelPosition=bottom;verticalAlign=top;align=center;html=1;fontSize=12;fontStyle=0;aspect=fixed;pointerEvents=1;shape=mxgraph.aws4.disk;" vertex="1" parent="1">
          <mxGeometry x="632" y="465" width="48" height="48" as="geometry" />
        </mxCell>
        <mxCell id="zQjQIO1lfrHbk5e2Ibf9-13" value="" style="sketch=0;outlineConnect=0;fontColor=#232F3E;gradientColor=none;fillColor=#FFFFFF;strokeColor=none;dashed=0;verticalLabelPosition=bottom;verticalAlign=top;align=center;html=1;fontSize=12;fontStyle=0;aspect=fixed;pointerEvents=1;shape=mxgraph.aws4.disk;" vertex="1" parent="1">
          <mxGeometry x="632" y="303" width="48" height="48" as="geometry" />
        </mxCell>
        <mxCell id="zQjQIO1lfrHbk5e2Ibf9-29" style="edgeStyle=orthogonalEdgeStyle;rounded=0;orthogonalLoop=1;jettySize=auto;html=1;strokeWidth=2;strokeColor=#FFFFFF;flowAnimation=1;" edge="1" parent="1" target="zQjQIO1lfrHbk5e2Ibf9-34">
          <mxGeometry relative="1" as="geometry">
            <mxPoint x="831" y="414" as="sourcePoint" />
            <Array as="points">
              <mxPoint x="861" y="414" />
              <mxPoint x="861" y="327" />
            </Array>
          </mxGeometry>
        </mxCell>
        <mxCell id="zQjQIO1lfrHbk5e2Ibf9-30" style="edgeStyle=orthogonalEdgeStyle;rounded=0;orthogonalLoop=1;jettySize=auto;html=1;strokeWidth=2;strokeColor=#FFFFFF;flowAnimation=1;" edge="1" parent="1" target="zQjQIO1lfrHbk5e2Ibf9-32">
          <mxGeometry relative="1" as="geometry">
            <mxPoint x="831" y="414" as="sourcePoint" />
          </mxGeometry>
        </mxCell>
        <mxCell id="zQjQIO1lfrHbk5e2Ibf9-31" style="edgeStyle=orthogonalEdgeStyle;rounded=0;orthogonalLoop=1;jettySize=auto;html=1;strokeWidth=2;strokeColor=#FFFFFF;flowAnimation=1;" edge="1" parent="1" target="zQjQIO1lfrHbk5e2Ibf9-33">
          <mxGeometry relative="1" as="geometry">
            <mxPoint x="831" y="414" as="sourcePoint" />
            <Array as="points">
              <mxPoint x="861" y="414" />
              <mxPoint x="861" y="489" />
            </Array>
          </mxGeometry>
        </mxCell>
        <mxCell id="zQjQIO1lfrHbk5e2Ibf9-32" value="" style="sketch=0;outlineConnect=0;fontColor=#232F3E;gradientColor=none;fillColor=#FFFFFF;strokeColor=none;dashed=0;verticalLabelPosition=bottom;verticalAlign=top;align=center;html=1;fontSize=12;fontStyle=0;aspect=fixed;pointerEvents=1;shape=mxgraph.aws4.disk;" vertex="1" parent="1">
          <mxGeometry x="877" y="389.5" width="48" height="48" as="geometry" />
        </mxCell>
        <mxCell id="zQjQIO1lfrHbk5e2Ibf9-33" value="" style="sketch=0;outlineConnect=0;fontColor=#232F3E;gradientColor=none;fillColor=#FFFFFF;strokeColor=none;dashed=0;verticalLabelPosition=bottom;verticalAlign=top;align=center;html=1;fontSize=12;fontStyle=0;aspect=fixed;pointerEvents=1;shape=mxgraph.aws4.disk;" vertex="1" parent="1">
          <mxGeometry x="875" y="465" width="48" height="48" as="geometry" />
        </mxCell>
        <mxCell id="zQjQIO1lfrHbk5e2Ibf9-34" value="" style="sketch=0;outlineConnect=0;fontColor=#232F3E;gradientColor=none;fillColor=#FFFFFF;strokeColor=none;dashed=0;verticalLabelPosition=bottom;verticalAlign=top;align=center;html=1;fontSize=12;fontStyle=0;aspect=fixed;pointerEvents=1;shape=mxgraph.aws4.disk;" vertex="1" parent="1">
          <mxGeometry x="875" y="303" width="48" height="48" as="geometry" />
        </mxCell>
        <mxCell id="zQjQIO1lfrHbk5e2Ibf9-35" value="&lt;b&gt;&lt;font color=&quot;#ffffff&quot;&gt;Source Server&lt;br&gt;( AWS Replication agent install )&lt;/font&gt;&lt;/b&gt;" style="text;html=1;align=center;verticalAlign=middle;whiteSpace=wrap;rounded=0;" vertex="1" parent="1">
          <mxGeometry x="86" y="455" width="118" height="30" as="geometry" />
        </mxCell>
        <mxCell id="zQjQIO1lfrHbk5e2Ibf9-37" value="&lt;b&gt;&lt;font color=&quot;#ffffff&quot;&gt;Volume&lt;/font&gt;&lt;/b&gt;" style="text;html=1;align=center;verticalAlign=middle;whiteSpace=wrap;rounded=0;" vertex="1" parent="1">
          <mxGeometry x="-47" y="344.5" width="61" height="30" as="geometry" />
        </mxCell>
        <mxCell id="zQjQIO1lfrHbk5e2Ibf9-38" value="&lt;b&gt;&lt;font color=&quot;#ffffff&quot;&gt;Volume&lt;/font&gt;&lt;/b&gt;" style="text;html=1;align=center;verticalAlign=middle;whiteSpace=wrap;rounded=0;" vertex="1" parent="1">
          <mxGeometry x="-52" y="430" width="61" height="30" as="geometry" />
        </mxCell>
        <mxCell id="zQjQIO1lfrHbk5e2Ibf9-39" value="&lt;b&gt;&lt;font color=&quot;#ffffff&quot;&gt;Volume&lt;/font&gt;&lt;/b&gt;" style="text;html=1;align=center;verticalAlign=middle;whiteSpace=wrap;rounded=0;" vertex="1" parent="1">
          <mxGeometry x="-52" y="508" width="61" height="30" as="geometry" />
        </mxCell>
        <mxCell id="zQjQIO1lfrHbk5e2Ibf9-40" value="&lt;font color=&quot;#ffffff&quot;&gt;&lt;b&gt;Continuous Block Level Replication by agent controls&lt;/b&gt;&lt;/font&gt;" style="text;html=1;align=center;verticalAlign=middle;whiteSpace=wrap;rounded=0;" vertex="1" parent="1">
          <mxGeometry x="232" y="174" width="118" height="30" as="geometry" />
        </mxCell>
        <mxCell id="zQjQIO1lfrHbk5e2Ibf9-41" value="&lt;b&gt;&lt;font color=&quot;#ffffff&quot;&gt;AWS Elastic Disaster recovery&lt;/font&gt;&lt;/b&gt;" style="text;html=1;align=center;verticalAlign=middle;whiteSpace=wrap;rounded=0;" vertex="1" parent="1">
          <mxGeometry x="665" y="127" width="148" height="30" as="geometry" />
        </mxCell>
        <mxCell id="zQjQIO1lfrHbk5e2Ibf9-42" value="&lt;b&gt;&lt;font color=&quot;#ffffff&quot;&gt;Volume&lt;/font&gt;&lt;/b&gt;" style="text;html=1;align=center;verticalAlign=middle;whiteSpace=wrap;rounded=0;" vertex="1" parent="1">
          <mxGeometry x="632" y="352" width="61" height="30" as="geometry" />
        </mxCell>
        <mxCell id="zQjQIO1lfrHbk5e2Ibf9-43" value="&lt;b&gt;&lt;font color=&quot;#ffffff&quot;&gt;Volume&lt;/font&gt;&lt;/b&gt;" style="text;html=1;align=center;verticalAlign=middle;whiteSpace=wrap;rounded=0;" vertex="1" parent="1">
          <mxGeometry x="632" y="433" width="61" height="30" as="geometry" />
        </mxCell>
        <mxCell id="zQjQIO1lfrHbk5e2Ibf9-44" value="&lt;b&gt;&lt;font color=&quot;#ffffff&quot;&gt;Volume&lt;/font&gt;&lt;/b&gt;" style="text;html=1;align=center;verticalAlign=middle;whiteSpace=wrap;rounded=0;" vertex="1" parent="1">
          <mxGeometry x="627.5" y="508" width="61" height="30" as="geometry" />
        </mxCell>
        <mxCell id="zQjQIO1lfrHbk5e2Ibf9-45" value="&lt;b&gt;&lt;font color=&quot;#ffffff&quot;&gt;Volume&lt;/font&gt;&lt;/b&gt;" style="text;html=1;align=center;verticalAlign=middle;whiteSpace=wrap;rounded=0;" vertex="1" parent="1">
          <mxGeometry x="868.5" y="347" width="61" height="30" as="geometry" />
        </mxCell>
        <mxCell id="zQjQIO1lfrHbk5e2Ibf9-46" value="&lt;b&gt;&lt;font color=&quot;#ffffff&quot;&gt;Volume&lt;/font&gt;&lt;/b&gt;" style="text;html=1;align=center;verticalAlign=middle;whiteSpace=wrap;rounded=0;" vertex="1" parent="1">
          <mxGeometry x="870.5" y="433" width="61" height="30" as="geometry" />
        </mxCell>
        <mxCell id="zQjQIO1lfrHbk5e2Ibf9-47" value="&lt;b&gt;&lt;font color=&quot;#ffffff&quot;&gt;Volume&lt;/font&gt;&lt;/b&gt;" style="text;html=1;align=center;verticalAlign=middle;whiteSpace=wrap;rounded=0;" vertex="1" parent="1">
          <mxGeometry x="868.5" y="508" width="61" height="30" as="geometry" />
        </mxCell>
        <mxCell id="zQjQIO1lfrHbk5e2Ibf9-48" value="&lt;font color=&quot;#ffffff&quot;&gt;&lt;b&gt;Replication Instances&lt;/b&gt;&lt;/font&gt;" style="text;html=1;align=center;verticalAlign=middle;whiteSpace=wrap;rounded=0;" vertex="1" parent="1">
          <mxGeometry x="491" y="451" width="118" height="30" as="geometry" />
        </mxCell>
        <mxCell id="zQjQIO1lfrHbk5e2Ibf9-49" value="&lt;b&gt;&lt;font color=&quot;#ffffff&quot;&gt;Volume&lt;/font&gt;&lt;/b&gt;" style="text;html=1;align=center;verticalAlign=middle;whiteSpace=wrap;rounded=0;" vertex="1" parent="1">
          <mxGeometry x="1101.5" y="789" width="61" height="30" as="geometry" />
        </mxCell>
        <mxCell id="zQjQIO1lfrHbk5e2Ibf9-50" value="&lt;font color=&quot;#ffffff&quot;&gt;&lt;b&gt;Recovery Instances&lt;/b&gt;&lt;/font&gt;" style="text;html=1;align=center;verticalAlign=middle;whiteSpace=wrap;rounded=0;" vertex="1" parent="1">
          <mxGeometry x="739" y="448" width="118" height="30" as="geometry" />
        </mxCell>
        <mxCell id="zQjQIO1lfrHbk5e2Ibf9-52" style="edgeStyle=orthogonalEdgeStyle;rounded=0;orthogonalLoop=1;jettySize=auto;html=1;strokeColor=#FFFFFF;strokeWidth=2;flowAnimation=1;" edge="1" parent="1">
          <mxGeometry relative="1" as="geometry">
            <mxPoint x="54.00404545454536" y="222.0000000000001" as="sourcePoint" />
            <mxPoint x="139.49368421052625" y="370.16347699909807" as="targetPoint" />
            <Array as="points">
              <mxPoint x="140" y="222" />
            </Array>
          </mxGeometry>
        </mxCell>
        <mxCell id="zQjQIO1lfrHbk5e2Ibf9-51" value="" style="sketch=0;outlineConnect=0;fontColor=#232F3E;gradientColor=none;fillColor=#FFFFFF;strokeColor=none;dashed=0;verticalLabelPosition=bottom;verticalAlign=top;align=center;html=1;fontSize=12;fontStyle=0;aspect=fixed;pointerEvents=1;shape=mxgraph.aws4.identity_access_management_iam_roles_anywhere;" vertex="1" parent="1">
          <mxGeometry x="-11" y="167" width="78" height="78" as="geometry" />
        </mxCell>
        <mxCell id="zQjQIO1lfrHbk5e2Ibf9-54" value="&lt;font color=&quot;#ffffff&quot;&gt;&lt;b&gt;IAM role with DR Agent recovery policy&lt;/b&gt;&lt;/font&gt;" style="text;html=1;align=center;verticalAlign=middle;whiteSpace=wrap;rounded=0;" vertex="1" parent="1">
          <mxGeometry x="-35" y="258" width="118" height="30" as="geometry" />
        </mxCell>
        <mxCell id="zQjQIO1lfrHbk5e2Ibf9-55" value="AWS Cloud" style="sketch=0;outlineConnect=0;gradientColor=none;html=1;whiteSpace=wrap;fontSize=12;fontStyle=0;shape=mxgraph.aws4.group;grIcon=mxgraph.aws4.group_aws_cloud;strokeColor=#FFFFFF;fillColor=none;verticalAlign=top;align=left;spacingLeft=30;fontColor=#AAB7B8;dashed=0;strokeWidth=3;" vertex="1" parent="1">
          <mxGeometry x="-578" y="1280" width="712" height="832" as="geometry" />
        </mxCell>
        <mxCell id="zQjQIO1lfrHbk5e2Ibf9-56" value="&lt;b&gt;&lt;font color=&quot;#ffffff&quot;&gt;US-West-1&lt;/font&gt;&lt;/b&gt;" style="text;html=1;align=center;verticalAlign=middle;whiteSpace=wrap;rounded=0;" vertex="1" parent="1">
          <mxGeometry x="-150" y="1250" width="70" height="30" as="geometry" />
        </mxCell>
        <mxCell id="zQjQIO1lfrHbk5e2Ibf9-57" value="" style="sketch=0;outlineConnect=0;fontColor=#232F3E;gradientColor=none;fillColor=#FFFFFF;strokeColor=none;dashed=0;verticalLabelPosition=bottom;verticalAlign=top;align=center;html=1;fontSize=12;fontStyle=0;aspect=fixed;pointerEvents=1;shape=mxgraph.aws4.traditional_server;" vertex="1" parent="1">
          <mxGeometry x="51" y="1523" width="45" height="78" as="geometry" />
        </mxCell>
        <mxCell id="zQjQIO1lfrHbk5e2Ibf9-58" style="edgeStyle=orthogonalEdgeStyle;rounded=0;orthogonalLoop=1;jettySize=auto;html=1;strokeColor=#FFFFFF;strokeWidth=2;flowAnimation=1;" edge="1" parent="1" source="zQjQIO1lfrHbk5e2Ibf9-59" target="zQjQIO1lfrHbk5e2Ibf9-57">
          <mxGeometry relative="1" as="geometry" />
        </mxCell>
        <mxCell id="zQjQIO1lfrHbk5e2Ibf9-59" value="" style="sketch=0;outlineConnect=0;fontColor=#232F3E;gradientColor=none;fillColor=#FFFFFF;strokeColor=none;dashed=0;verticalLabelPosition=bottom;verticalAlign=top;align=center;html=1;fontSize=12;fontStyle=0;aspect=fixed;pointerEvents=1;shape=mxgraph.aws4.disk;" vertex="1" parent="1">
          <mxGeometry x="-122" y="1538" width="48" height="48" as="geometry" />
        </mxCell>
        <mxCell id="zQjQIO1lfrHbk5e2Ibf9-60" style="edgeStyle=orthogonalEdgeStyle;rounded=0;orthogonalLoop=1;jettySize=auto;html=1;strokeColor=#FFFFFF;strokeWidth=2;flowAnimation=1;" edge="1" parent="1" source="zQjQIO1lfrHbk5e2Ibf9-61" target="zQjQIO1lfrHbk5e2Ibf9-57">
          <mxGeometry relative="1" as="geometry">
            <Array as="points">
              <mxPoint x="-23" y="1645" />
              <mxPoint x="-23" y="1562" />
            </Array>
          </mxGeometry>
        </mxCell>
        <mxCell id="zQjQIO1lfrHbk5e2Ibf9-61" value="" style="sketch=0;outlineConnect=0;fontColor=#232F3E;gradientColor=none;fillColor=#FFFFFF;strokeColor=none;dashed=0;verticalLabelPosition=bottom;verticalAlign=top;align=center;html=1;fontSize=12;fontStyle=0;aspect=fixed;pointerEvents=1;shape=mxgraph.aws4.disk;" vertex="1" parent="1">
          <mxGeometry x="-122" y="1621" width="48" height="48" as="geometry" />
        </mxCell>
        <mxCell id="zQjQIO1lfrHbk5e2Ibf9-62" style="edgeStyle=orthogonalEdgeStyle;rounded=0;orthogonalLoop=1;jettySize=auto;html=1;strokeColor=#FFFFFF;strokeWidth=2;flowAnimation=1;" edge="1" parent="1" source="zQjQIO1lfrHbk5e2Ibf9-63" target="zQjQIO1lfrHbk5e2Ibf9-57">
          <mxGeometry relative="1" as="geometry">
            <Array as="points">
              <mxPoint x="-22" y="1483" />
              <mxPoint x="-22" y="1560" />
            </Array>
          </mxGeometry>
        </mxCell>
        <mxCell id="zQjQIO1lfrHbk5e2Ibf9-63" value="" style="sketch=0;outlineConnect=0;fontColor=#232F3E;gradientColor=none;fillColor=#FFFFFF;strokeColor=none;dashed=0;verticalLabelPosition=bottom;verticalAlign=top;align=center;html=1;fontSize=12;fontStyle=0;aspect=fixed;pointerEvents=1;shape=mxgraph.aws4.disk;" vertex="1" parent="1">
          <mxGeometry x="-122" y="1459" width="48" height="48" as="geometry" />
        </mxCell>
        <mxCell id="zQjQIO1lfrHbk5e2Ibf9-64" value="AWS Cloud" style="sketch=0;outlineConnect=0;gradientColor=none;html=1;whiteSpace=wrap;fontSize=12;fontStyle=0;shape=mxgraph.aws4.group;grIcon=mxgraph.aws4.group_aws_cloud;strokeColor=#FFFFFF;fillColor=none;verticalAlign=top;align=left;spacingLeft=30;fontColor=#AAB7B8;dashed=0;strokeWidth=3;" vertex="1" parent="1">
          <mxGeometry x="380" y="1280" width="606" height="438" as="geometry" />
        </mxCell>
        <mxCell id="zQjQIO1lfrHbk5e2Ibf9-65" style="edgeStyle=orthogonalEdgeStyle;rounded=0;orthogonalLoop=1;jettySize=auto;html=1;strokeColor=#FFFFFF;strokeWidth=2;flowAnimation=1;" edge="1" parent="1" source="zQjQIO1lfrHbk5e2Ibf9-66" target="zQjQIO1lfrHbk5e2Ibf9-74">
          <mxGeometry relative="1" as="geometry" />
        </mxCell>
        <mxCell id="zQjQIO1lfrHbk5e2Ibf9-66" value="" style="sketch=0;points=[[0,0,0],[0.25,0,0],[0.5,0,0],[0.75,0,0],[1,0,0],[0,1,0],[0.25,1,0],[0.5,1,0],[0.75,1,0],[1,1,0],[0,0.25,0],[0,0.5,0],[0,0.75,0],[1,0.25,0],[1,0.5,0],[1,0.75,0]];outlineConnect=0;fontColor=#232F3E;fillColor=#7AA116;strokeColor=#ffffff;dashed=0;verticalLabelPosition=bottom;verticalAlign=top;align=center;html=1;fontSize=12;fontStyle=0;aspect=fixed;shape=mxgraph.aws4.resourceIcon;resIcon=mxgraph.aws4.cloudendure_disaster_recovery;" vertex="1" parent="1">
          <mxGeometry x="654" y="1289" width="47" height="47" as="geometry" />
        </mxCell>
        <mxCell id="zQjQIO1lfrHbk5e2Ibf9-67" value="VPC" style="sketch=0;outlineConnect=0;gradientColor=none;html=1;whiteSpace=wrap;fontSize=12;fontStyle=0;shape=mxgraph.aws4.group;grIcon=mxgraph.aws4.group_vpc;strokeColor=#FFFFFF;fillColor=none;verticalAlign=top;align=left;spacingLeft=30;fontColor=#879196;dashed=0;strokeWidth=3;" vertex="1" parent="1">
          <mxGeometry x="403" y="1348" width="566" height="356" as="geometry" />
        </mxCell>
        <mxCell id="zQjQIO1lfrHbk5e2Ibf9-68" value="&lt;b&gt;&lt;font color=&quot;#ffffff&quot;&gt;DRS region: US-east-1&lt;/font&gt;&lt;/b&gt;" style="text;html=1;align=center;verticalAlign=middle;whiteSpace=wrap;rounded=0;" vertex="1" parent="1">
          <mxGeometry x="377" y="1250" width="148" height="30" as="geometry" />
        </mxCell>
        <mxCell id="zQjQIO1lfrHbk5e2Ibf9-69" value="Subnet" style="sketch=0;outlineConnect=0;gradientColor=none;html=1;whiteSpace=wrap;fontSize=12;fontStyle=0;shape=mxgraph.aws4.group;grIcon=mxgraph.aws4.group_subnet;strokeColor=#FFFFFF;fillColor=none;verticalAlign=top;align=left;spacingLeft=30;fontColor=#879196;dashed=0;strokeWidth=3;" vertex="1" parent="1">
          <mxGeometry x="421" y="1384" width="526" height="307" as="geometry" />
        </mxCell>
        <mxCell id="zQjQIO1lfrHbk5e2Ibf9-70" style="edgeStyle=orthogonalEdgeStyle;rounded=0;orthogonalLoop=1;jettySize=auto;html=1;strokeWidth=2;strokeColor=#FFFFFF;flowAnimation=1;" edge="1" parent="1" source="zQjQIO1lfrHbk5e2Ibf9-73" target="zQjQIO1lfrHbk5e2Ibf9-79">
          <mxGeometry relative="1" as="geometry">
            <Array as="points">
              <mxPoint x="622" y="1570" />
              <mxPoint x="622" y="1483" />
            </Array>
          </mxGeometry>
        </mxCell>
        <mxCell id="zQjQIO1lfrHbk5e2Ibf9-71" style="edgeStyle=orthogonalEdgeStyle;rounded=0;orthogonalLoop=1;jettySize=auto;html=1;strokeWidth=2;strokeColor=#FFFFFF;flowAnimation=1;" edge="1" parent="1" source="zQjQIO1lfrHbk5e2Ibf9-73" target="zQjQIO1lfrHbk5e2Ibf9-77">
          <mxGeometry relative="1" as="geometry" />
        </mxCell>
        <mxCell id="zQjQIO1lfrHbk5e2Ibf9-72" style="edgeStyle=orthogonalEdgeStyle;rounded=0;orthogonalLoop=1;jettySize=auto;html=1;strokeWidth=2;strokeColor=#FFFFFF;flowAnimation=1;" edge="1" parent="1" source="zQjQIO1lfrHbk5e2Ibf9-73" target="zQjQIO1lfrHbk5e2Ibf9-78">
          <mxGeometry relative="1" as="geometry">
            <Array as="points">
              <mxPoint x="622" y="1570" />
              <mxPoint x="622" y="1645" />
            </Array>
          </mxGeometry>
        </mxCell>
        <mxCell id="zQjQIO1lfrHbk5e2Ibf9-73" value="" style="outlineConnect=0;dashed=0;verticalLabelPosition=bottom;verticalAlign=top;align=center;html=1;shape=mxgraph.aws3.instances;fillColor=#F58534;gradientColor=none;" vertex="1" parent="1">
          <mxGeometry x="532" y="1538" width="60" height="63" as="geometry" />
        </mxCell>
        <mxCell id="zQjQIO1lfrHbk5e2Ibf9-74" value="" style="outlineConnect=0;dashed=0;verticalLabelPosition=bottom;verticalAlign=top;align=center;html=1;shape=mxgraph.aws3.instances;fillColor=#F58534;gradientColor=none;" vertex="1" parent="1">
          <mxGeometry x="775" y="1530.5" width="60" height="63" as="geometry" />
        </mxCell>
        <mxCell id="zQjQIO1lfrHbk5e2Ibf9-76" value="" style="endArrow=classic;html=1;rounded=0;entryX=0.237;entryY=0.035;entryDx=0;entryDy=0;entryPerimeter=0;strokeColor=#FFFFFF;strokeWidth=2;flowAnimation=1;" edge="1" parent="1" target="zQjQIO1lfrHbk5e2Ibf9-73">
          <mxGeometry width="50" height="50" relative="1" as="geometry">
            <mxPoint x="543" y="1312" as="sourcePoint" />
            <mxPoint x="543" y="1467" as="targetPoint" />
          </mxGeometry>
        </mxCell>
        <mxCell id="zQjQIO1lfrHbk5e2Ibf9-77" value="" style="sketch=0;outlineConnect=0;fontColor=#232F3E;gradientColor=none;fillColor=#FFFFFF;strokeColor=none;dashed=0;verticalLabelPosition=bottom;verticalAlign=top;align=center;html=1;fontSize=12;fontStyle=0;aspect=fixed;pointerEvents=1;shape=mxgraph.aws4.disk;" vertex="1" parent="1">
          <mxGeometry x="638" y="1545.5" width="48" height="48" as="geometry" />
        </mxCell>
        <mxCell id="zQjQIO1lfrHbk5e2Ibf9-78" value="" style="sketch=0;outlineConnect=0;fontColor=#232F3E;gradientColor=none;fillColor=#FFFFFF;strokeColor=none;dashed=0;verticalLabelPosition=bottom;verticalAlign=top;align=center;html=1;fontSize=12;fontStyle=0;aspect=fixed;pointerEvents=1;shape=mxgraph.aws4.disk;" vertex="1" parent="1">
          <mxGeometry x="636" y="1621" width="48" height="48" as="geometry" />
        </mxCell>
        <mxCell id="zQjQIO1lfrHbk5e2Ibf9-79" value="" style="sketch=0;outlineConnect=0;fontColor=#232F3E;gradientColor=none;fillColor=#FFFFFF;strokeColor=none;dashed=0;verticalLabelPosition=bottom;verticalAlign=top;align=center;html=1;fontSize=12;fontStyle=0;aspect=fixed;pointerEvents=1;shape=mxgraph.aws4.disk;" vertex="1" parent="1">
          <mxGeometry x="636" y="1459" width="48" height="48" as="geometry" />
        </mxCell>
        <mxCell id="zQjQIO1lfrHbk5e2Ibf9-80" style="edgeStyle=orthogonalEdgeStyle;rounded=0;orthogonalLoop=1;jettySize=auto;html=1;strokeWidth=2;strokeColor=#FFFFFF;flowAnimation=1;" edge="1" parent="1" target="zQjQIO1lfrHbk5e2Ibf9-85">
          <mxGeometry relative="1" as="geometry">
            <mxPoint x="835" y="1570" as="sourcePoint" />
            <Array as="points">
              <mxPoint x="865" y="1570" />
              <mxPoint x="865" y="1483" />
            </Array>
          </mxGeometry>
        </mxCell>
        <mxCell id="zQjQIO1lfrHbk5e2Ibf9-81" style="edgeStyle=orthogonalEdgeStyle;rounded=0;orthogonalLoop=1;jettySize=auto;html=1;strokeWidth=2;strokeColor=#FFFFFF;flowAnimation=1;" edge="1" parent="1" target="zQjQIO1lfrHbk5e2Ibf9-83">
          <mxGeometry relative="1" as="geometry">
            <mxPoint x="835" y="1570" as="sourcePoint" />
          </mxGeometry>
        </mxCell>
        <mxCell id="zQjQIO1lfrHbk5e2Ibf9-82" style="edgeStyle=orthogonalEdgeStyle;rounded=0;orthogonalLoop=1;jettySize=auto;html=1;strokeWidth=2;strokeColor=#FFFFFF;flowAnimation=1;" edge="1" parent="1" target="zQjQIO1lfrHbk5e2Ibf9-84">
          <mxGeometry relative="1" as="geometry">
            <mxPoint x="835" y="1570" as="sourcePoint" />
            <Array as="points">
              <mxPoint x="865" y="1570" />
              <mxPoint x="865" y="1645" />
            </Array>
          </mxGeometry>
        </mxCell>
        <mxCell id="zQjQIO1lfrHbk5e2Ibf9-83" value="" style="sketch=0;outlineConnect=0;fontColor=#232F3E;gradientColor=none;fillColor=#FFFFFF;strokeColor=none;dashed=0;verticalLabelPosition=bottom;verticalAlign=top;align=center;html=1;fontSize=12;fontStyle=0;aspect=fixed;pointerEvents=1;shape=mxgraph.aws4.disk;" vertex="1" parent="1">
          <mxGeometry x="881" y="1545.5" width="48" height="48" as="geometry" />
        </mxCell>
        <mxCell id="zQjQIO1lfrHbk5e2Ibf9-84" value="" style="sketch=0;outlineConnect=0;fontColor=#232F3E;gradientColor=none;fillColor=#FFFFFF;strokeColor=none;dashed=0;verticalLabelPosition=bottom;verticalAlign=top;align=center;html=1;fontSize=12;fontStyle=0;aspect=fixed;pointerEvents=1;shape=mxgraph.aws4.disk;" vertex="1" parent="1">
          <mxGeometry x="879" y="1621" width="48" height="48" as="geometry" />
        </mxCell>
        <mxCell id="zQjQIO1lfrHbk5e2Ibf9-85" value="" style="sketch=0;outlineConnect=0;fontColor=#232F3E;gradientColor=none;fillColor=#FFFFFF;strokeColor=none;dashed=0;verticalLabelPosition=bottom;verticalAlign=top;align=center;html=1;fontSize=12;fontStyle=0;aspect=fixed;pointerEvents=1;shape=mxgraph.aws4.disk;" vertex="1" parent="1">
          <mxGeometry x="879" y="1459" width="48" height="48" as="geometry" />
        </mxCell>
        <mxCell id="zQjQIO1lfrHbk5e2Ibf9-86" value="&lt;b&gt;&lt;font color=&quot;#ffffff&quot;&gt;Source Server&lt;br&gt;( AWS Replication agent install )&lt;/font&gt;&lt;/b&gt;" style="text;html=1;align=center;verticalAlign=middle;whiteSpace=wrap;rounded=0;" vertex="1" parent="1">
          <mxGeometry x="7" y="1611" width="118" height="30" as="geometry" />
        </mxCell>
        <mxCell id="zQjQIO1lfrHbk5e2Ibf9-87" value="&lt;b&gt;&lt;font color=&quot;#ffffff&quot;&gt;Volume&lt;/font&gt;&lt;/b&gt;" style="text;html=1;align=center;verticalAlign=middle;whiteSpace=wrap;rounded=0;" vertex="1" parent="1">
          <mxGeometry x="-126" y="1500.5" width="61" height="30" as="geometry" />
        </mxCell>
        <mxCell id="zQjQIO1lfrHbk5e2Ibf9-88" value="&lt;b&gt;&lt;font color=&quot;#ffffff&quot;&gt;Volume&lt;/font&gt;&lt;/b&gt;" style="text;html=1;align=center;verticalAlign=middle;whiteSpace=wrap;rounded=0;" vertex="1" parent="1">
          <mxGeometry x="-131" y="1586" width="61" height="30" as="geometry" />
        </mxCell>
        <mxCell id="zQjQIO1lfrHbk5e2Ibf9-89" value="&lt;b&gt;&lt;font color=&quot;#ffffff&quot;&gt;Volume&lt;/font&gt;&lt;/b&gt;" style="text;html=1;align=center;verticalAlign=middle;whiteSpace=wrap;rounded=0;" vertex="1" parent="1">
          <mxGeometry x="-131" y="1664" width="61" height="30" as="geometry" />
        </mxCell>
        <mxCell id="zQjQIO1lfrHbk5e2Ibf9-90" value="&lt;font color=&quot;#ffffff&quot;&gt;&lt;b&gt;Continuous Block Level Replication by agent controls&lt;/b&gt;&lt;/font&gt;" style="text;html=1;align=center;verticalAlign=middle;whiteSpace=wrap;rounded=0;" vertex="1" parent="1">
          <mxGeometry x="236" y="1330" width="118" height="30" as="geometry" />
        </mxCell>
        <mxCell id="zQjQIO1lfrHbk5e2Ibf9-91" value="&lt;b&gt;&lt;font color=&quot;#ffffff&quot;&gt;AWS Elastic Disaster recovery&lt;/font&gt;&lt;/b&gt;" style="text;html=1;align=center;verticalAlign=middle;whiteSpace=wrap;rounded=0;" vertex="1" parent="1">
          <mxGeometry x="701" y="1283" width="148" height="30" as="geometry" />
        </mxCell>
        <mxCell id="zQjQIO1lfrHbk5e2Ibf9-92" value="&lt;b&gt;&lt;font color=&quot;#ffffff&quot;&gt;Volume&lt;/font&gt;&lt;/b&gt;" style="text;html=1;align=center;verticalAlign=middle;whiteSpace=wrap;rounded=0;" vertex="1" parent="1">
          <mxGeometry x="636" y="1508" width="61" height="30" as="geometry" />
        </mxCell>
        <mxCell id="zQjQIO1lfrHbk5e2Ibf9-93" value="&lt;b&gt;&lt;font color=&quot;#ffffff&quot;&gt;Volume&lt;/font&gt;&lt;/b&gt;" style="text;html=1;align=center;verticalAlign=middle;whiteSpace=wrap;rounded=0;" vertex="1" parent="1">
          <mxGeometry x="636" y="1589" width="61" height="30" as="geometry" />
        </mxCell>
        <mxCell id="zQjQIO1lfrHbk5e2Ibf9-94" value="&lt;b&gt;&lt;font color=&quot;#ffffff&quot;&gt;Volume&lt;/font&gt;&lt;/b&gt;" style="text;html=1;align=center;verticalAlign=middle;whiteSpace=wrap;rounded=0;" vertex="1" parent="1">
          <mxGeometry x="631.5" y="1664" width="61" height="30" as="geometry" />
        </mxCell>
        <mxCell id="zQjQIO1lfrHbk5e2Ibf9-95" value="&lt;b&gt;&lt;font color=&quot;#ffffff&quot;&gt;Volume&lt;/font&gt;&lt;/b&gt;" style="text;html=1;align=center;verticalAlign=middle;whiteSpace=wrap;rounded=0;" vertex="1" parent="1">
          <mxGeometry x="872.5" y="1503" width="61" height="30" as="geometry" />
        </mxCell>
        <mxCell id="zQjQIO1lfrHbk5e2Ibf9-96" value="&lt;b&gt;&lt;font color=&quot;#ffffff&quot;&gt;Volume&lt;/font&gt;&lt;/b&gt;" style="text;html=1;align=center;verticalAlign=middle;whiteSpace=wrap;rounded=0;" vertex="1" parent="1">
          <mxGeometry x="874.5" y="1589" width="61" height="30" as="geometry" />
        </mxCell>
        <mxCell id="zQjQIO1lfrHbk5e2Ibf9-97" value="&lt;b&gt;&lt;font color=&quot;#ffffff&quot;&gt;Volume&lt;/font&gt;&lt;/b&gt;" style="text;html=1;align=center;verticalAlign=middle;whiteSpace=wrap;rounded=0;" vertex="1" parent="1">
          <mxGeometry x="872.5" y="1664" width="61" height="30" as="geometry" />
        </mxCell>
        <mxCell id="zQjQIO1lfrHbk5e2Ibf9-98" value="&lt;font color=&quot;#ffffff&quot;&gt;&lt;b&gt;Replication Instances&lt;/b&gt;&lt;/font&gt;" style="text;html=1;align=center;verticalAlign=middle;whiteSpace=wrap;rounded=0;" vertex="1" parent="1">
          <mxGeometry x="469" y="1611" width="118" height="30" as="geometry" />
        </mxCell>
        <mxCell id="zQjQIO1lfrHbk5e2Ibf9-99" value="&lt;font color=&quot;#ffffff&quot;&gt;&lt;b&gt;Recovery Instances&lt;/b&gt;&lt;/font&gt;" style="text;html=1;align=center;verticalAlign=middle;whiteSpace=wrap;rounded=0;" vertex="1" parent="1">
          <mxGeometry x="739" y="1611" width="118" height="30" as="geometry" />
        </mxCell>
        <mxCell id="zQjQIO1lfrHbk5e2Ibf9-100" style="edgeStyle=orthogonalEdgeStyle;rounded=0;orthogonalLoop=1;jettySize=auto;html=1;strokeColor=#FFFFFF;strokeWidth=2;flowAnimation=1;" edge="1" parent="1">
          <mxGeometry relative="1" as="geometry">
            <mxPoint x="-24.995954545454637" y="1378" as="sourcePoint" />
            <mxPoint x="60.493684210526254" y="1526.163476999098" as="targetPoint" />
            <Array as="points">
              <mxPoint x="61" y="1378" />
            </Array>
          </mxGeometry>
        </mxCell>
        <mxCell id="zQjQIO1lfrHbk5e2Ibf9-101" value="" style="sketch=0;outlineConnect=0;fontColor=#232F3E;gradientColor=none;fillColor=#FFFFFF;strokeColor=none;dashed=0;verticalLabelPosition=bottom;verticalAlign=top;align=center;html=1;fontSize=12;fontStyle=0;aspect=fixed;pointerEvents=1;shape=mxgraph.aws4.identity_access_management_iam_roles_anywhere;" vertex="1" parent="1">
          <mxGeometry x="-90" y="1323" width="78" height="78" as="geometry" />
        </mxCell>
        <mxCell id="zQjQIO1lfrHbk5e2Ibf9-102" value="&lt;font color=&quot;#ffffff&quot;&gt;&lt;b&gt;IAM role with DR Agent recovery policy&lt;/b&gt;&lt;/font&gt;" style="text;html=1;align=center;verticalAlign=middle;whiteSpace=wrap;rounded=0;" vertex="1" parent="1">
          <mxGeometry x="-114" y="1414" width="118" height="30" as="geometry" />
        </mxCell>
        <mxCell id="zQjQIO1lfrHbk5e2Ibf9-127" value="" style="outlineConnect=0;dashed=0;verticalLabelPosition=bottom;verticalAlign=top;align=center;html=1;shape=mxgraph.aws3.instances;fillColor=#F58534;gradientColor=none;" vertex="1" parent="1">
          <mxGeometry x="-79" y="1795.5" width="60" height="63" as="geometry" />
        </mxCell>
        <mxCell id="zQjQIO1lfrHbk5e2Ibf9-142" value="&lt;font color=&quot;#ffffff&quot;&gt;&lt;b&gt;Replication Instances&lt;/b&gt;&lt;/font&gt;" style="text;html=1;align=center;verticalAlign=middle;whiteSpace=wrap;rounded=0;" vertex="1" parent="1">
          <mxGeometry x="-96" y="1870" width="118" height="30" as="geometry" />
        </mxCell>
        <mxCell id="zQjQIO1lfrHbk5e2Ibf9-144" style="edgeStyle=orthogonalEdgeStyle;rounded=0;orthogonalLoop=1;jettySize=auto;html=1;entryX=1;entryY=0.5;entryDx=0;entryDy=0;entryPerimeter=0;strokeColor=#FFFFFF;strokeWidth=2;flowAnimation=1;" edge="1" parent="1" source="zQjQIO1lfrHbk5e2Ibf9-74" target="zQjQIO1lfrHbk5e2Ibf9-127">
          <mxGeometry relative="1" as="geometry">
            <Array as="points">
              <mxPoint x="727" y="1562" />
              <mxPoint x="727" y="1826" />
            </Array>
          </mxGeometry>
        </mxCell>
        <mxCell id="zQjQIO1lfrHbk5e2Ibf9-176" style="edgeStyle=orthogonalEdgeStyle;rounded=0;orthogonalLoop=1;jettySize=auto;html=1;strokeColor=#FFFFFF;strokeWidth=2;flowAnimation=1;" edge="1" parent="1" source="zQjQIO1lfrHbk5e2Ibf9-177">
          <mxGeometry relative="1" as="geometry">
            <mxPoint x="-72" y="1822.0526315789475" as="targetPoint" />
          </mxGeometry>
        </mxCell>
        <mxCell id="zQjQIO1lfrHbk5e2Ibf9-177" value="" style="sketch=0;outlineConnect=0;fontColor=#232F3E;gradientColor=none;fillColor=#FFFFFF;strokeColor=none;dashed=0;verticalLabelPosition=bottom;verticalAlign=top;align=center;html=1;fontSize=12;fontStyle=0;aspect=fixed;pointerEvents=1;shape=mxgraph.aws4.disk;" vertex="1" parent="1">
          <mxGeometry x="-245" y="1798" width="48" height="48" as="geometry" />
        </mxCell>
        <mxCell id="zQjQIO1lfrHbk5e2Ibf9-178" style="edgeStyle=orthogonalEdgeStyle;rounded=0;orthogonalLoop=1;jettySize=auto;html=1;strokeColor=#FFFFFF;strokeWidth=2;flowAnimation=1;" edge="1" parent="1" source="zQjQIO1lfrHbk5e2Ibf9-179">
          <mxGeometry relative="1" as="geometry">
            <Array as="points">
              <mxPoint x="-146" y="1905" />
              <mxPoint x="-146" y="1822" />
            </Array>
            <mxPoint x="-72" y="1822.0526315789475" as="targetPoint" />
          </mxGeometry>
        </mxCell>
        <mxCell id="zQjQIO1lfrHbk5e2Ibf9-179" value="" style="sketch=0;outlineConnect=0;fontColor=#232F3E;gradientColor=none;fillColor=#FFFFFF;strokeColor=none;dashed=0;verticalLabelPosition=bottom;verticalAlign=top;align=center;html=1;fontSize=12;fontStyle=0;aspect=fixed;pointerEvents=1;shape=mxgraph.aws4.disk;" vertex="1" parent="1">
          <mxGeometry x="-245" y="1881" width="48" height="48" as="geometry" />
        </mxCell>
        <mxCell id="zQjQIO1lfrHbk5e2Ibf9-180" style="edgeStyle=orthogonalEdgeStyle;rounded=0;orthogonalLoop=1;jettySize=auto;html=1;strokeColor=#FFFFFF;strokeWidth=2;flowAnimation=1;" edge="1" parent="1" source="zQjQIO1lfrHbk5e2Ibf9-181">
          <mxGeometry relative="1" as="geometry">
            <Array as="points">
              <mxPoint x="-145" y="1743" />
              <mxPoint x="-145" y="1820" />
            </Array>
            <mxPoint x="-72" y="1819.947368421053" as="targetPoint" />
          </mxGeometry>
        </mxCell>
        <mxCell id="zQjQIO1lfrHbk5e2Ibf9-181" value="" style="sketch=0;outlineConnect=0;fontColor=#232F3E;gradientColor=none;fillColor=#FFFFFF;strokeColor=none;dashed=0;verticalLabelPosition=bottom;verticalAlign=top;align=center;html=1;fontSize=12;fontStyle=0;aspect=fixed;pointerEvents=1;shape=mxgraph.aws4.disk;" vertex="1" parent="1">
          <mxGeometry x="-245" y="1719" width="48" height="48" as="geometry" />
        </mxCell>
        <mxCell id="zQjQIO1lfrHbk5e2Ibf9-182" value="&lt;b&gt;&lt;font color=&quot;#ffffff&quot;&gt;Volume&lt;/font&gt;&lt;/b&gt;" style="text;html=1;align=center;verticalAlign=middle;whiteSpace=wrap;rounded=0;" vertex="1" parent="1">
          <mxGeometry x="-249" y="1760.5" width="61" height="30" as="geometry" />
        </mxCell>
        <mxCell id="zQjQIO1lfrHbk5e2Ibf9-183" value="&lt;b&gt;&lt;font color=&quot;#ffffff&quot;&gt;Volume&lt;/font&gt;&lt;/b&gt;" style="text;html=1;align=center;verticalAlign=middle;whiteSpace=wrap;rounded=0;" vertex="1" parent="1">
          <mxGeometry x="-254" y="1846" width="61" height="30" as="geometry" />
        </mxCell>
        <mxCell id="zQjQIO1lfrHbk5e2Ibf9-184" value="&lt;b&gt;&lt;font color=&quot;#ffffff&quot;&gt;Volume&lt;/font&gt;&lt;/b&gt;" style="text;html=1;align=center;verticalAlign=middle;whiteSpace=wrap;rounded=0;" vertex="1" parent="1">
          <mxGeometry x="-210" y="1923" width="61" height="30" as="geometry" />
        </mxCell>
        <mxCell id="zQjQIO1lfrHbk5e2Ibf9-203" value="&lt;font size=&quot;1&quot; color=&quot;#ffffff&quot;&gt;&lt;b style=&quot;font-size: 15px;&quot;&gt;Reversed replication&lt;/b&gt;&lt;/font&gt;" style="text;html=1;align=center;verticalAlign=middle;whiteSpace=wrap;rounded=0;" vertex="1" parent="1">
          <mxGeometry x="334" y="1784" width="118" height="30" as="geometry" />
        </mxCell>
        <mxCell id="zQjQIO1lfrHbk5e2Ibf9-204" value="" style="outlineConnect=0;dashed=0;verticalLabelPosition=bottom;verticalAlign=top;align=center;html=1;shape=mxgraph.aws3.instances;fillColor=#F58534;gradientColor=none;" vertex="1" parent="1">
          <mxGeometry x="-378" y="1776.5" width="60" height="63" as="geometry" />
        </mxCell>
        <mxCell id="zQjQIO1lfrHbk5e2Ibf9-205" value="&lt;font color=&quot;#ffffff&quot;&gt;&lt;b&gt;Recovery &lt;br&gt;Instances&lt;/b&gt;&lt;/font&gt;" style="text;html=1;align=center;verticalAlign=middle;whiteSpace=wrap;rounded=0;" vertex="1" parent="1">
          <mxGeometry x="-436" y="1832" width="118" height="30" as="geometry" />
        </mxCell>
        <mxCell id="zQjQIO1lfrHbk5e2Ibf9-206" style="edgeStyle=orthogonalEdgeStyle;rounded=0;orthogonalLoop=1;jettySize=auto;html=1;strokeColor=#FFFFFF;strokeWidth=2;flowAnimation=1;" edge="1" parent="1" source="zQjQIO1lfrHbk5e2Ibf9-207">
          <mxGeometry relative="1" as="geometry">
            <mxPoint x="-371" y="1803.0526315789475" as="targetPoint" />
          </mxGeometry>
        </mxCell>
        <mxCell id="zQjQIO1lfrHbk5e2Ibf9-207" value="" style="sketch=0;outlineConnect=0;fontColor=#232F3E;gradientColor=none;fillColor=#FFFFFF;strokeColor=none;dashed=0;verticalLabelPosition=bottom;verticalAlign=top;align=center;html=1;fontSize=12;fontStyle=0;aspect=fixed;pointerEvents=1;shape=mxgraph.aws4.disk;" vertex="1" parent="1">
          <mxGeometry x="-544" y="1779" width="48" height="48" as="geometry" />
        </mxCell>
        <mxCell id="zQjQIO1lfrHbk5e2Ibf9-208" style="edgeStyle=orthogonalEdgeStyle;rounded=0;orthogonalLoop=1;jettySize=auto;html=1;strokeColor=#FFFFFF;strokeWidth=2;flowAnimation=1;" edge="1" parent="1" source="zQjQIO1lfrHbk5e2Ibf9-209">
          <mxGeometry relative="1" as="geometry">
            <Array as="points">
              <mxPoint x="-445" y="1886" />
              <mxPoint x="-445" y="1803" />
            </Array>
            <mxPoint x="-371" y="1803.0526315789475" as="targetPoint" />
          </mxGeometry>
        </mxCell>
        <mxCell id="zQjQIO1lfrHbk5e2Ibf9-209" value="" style="sketch=0;outlineConnect=0;fontColor=#232F3E;gradientColor=none;fillColor=#FFFFFF;strokeColor=none;dashed=0;verticalLabelPosition=bottom;verticalAlign=top;align=center;html=1;fontSize=12;fontStyle=0;aspect=fixed;pointerEvents=1;shape=mxgraph.aws4.disk;" vertex="1" parent="1">
          <mxGeometry x="-544" y="1862" width="48" height="48" as="geometry" />
        </mxCell>
        <mxCell id="zQjQIO1lfrHbk5e2Ibf9-210" style="edgeStyle=orthogonalEdgeStyle;rounded=0;orthogonalLoop=1;jettySize=auto;html=1;strokeColor=#FFFFFF;strokeWidth=2;flowAnimation=1;" edge="1" parent="1" source="zQjQIO1lfrHbk5e2Ibf9-211">
          <mxGeometry relative="1" as="geometry">
            <Array as="points">
              <mxPoint x="-444" y="1724" />
              <mxPoint x="-444" y="1801" />
            </Array>
            <mxPoint x="-371" y="1800.947368421053" as="targetPoint" />
          </mxGeometry>
        </mxCell>
        <mxCell id="zQjQIO1lfrHbk5e2Ibf9-211" value="" style="sketch=0;outlineConnect=0;fontColor=#232F3E;gradientColor=none;fillColor=#FFFFFF;strokeColor=none;dashed=0;verticalLabelPosition=bottom;verticalAlign=top;align=center;html=1;fontSize=12;fontStyle=0;aspect=fixed;pointerEvents=1;shape=mxgraph.aws4.disk;" vertex="1" parent="1">
          <mxGeometry x="-544" y="1700" width="48" height="48" as="geometry" />
        </mxCell>
        <mxCell id="zQjQIO1lfrHbk5e2Ibf9-212" value="&lt;b&gt;&lt;font color=&quot;#ffffff&quot;&gt;Volume&lt;/font&gt;&lt;/b&gt;" style="text;html=1;align=center;verticalAlign=middle;whiteSpace=wrap;rounded=0;" vertex="1" parent="1">
          <mxGeometry x="-548" y="1741.5" width="61" height="30" as="geometry" />
        </mxCell>
        <mxCell id="zQjQIO1lfrHbk5e2Ibf9-213" value="&lt;b&gt;&lt;font color=&quot;#ffffff&quot;&gt;Volume&lt;/font&gt;&lt;/b&gt;" style="text;html=1;align=center;verticalAlign=middle;whiteSpace=wrap;rounded=0;" vertex="1" parent="1">
          <mxGeometry x="-553" y="1827" width="61" height="30" as="geometry" />
        </mxCell>
        <mxCell id="zQjQIO1lfrHbk5e2Ibf9-214" value="&lt;b&gt;&lt;font color=&quot;#ffffff&quot;&gt;Volume&lt;/font&gt;&lt;/b&gt;" style="text;html=1;align=center;verticalAlign=middle;whiteSpace=wrap;rounded=0;" vertex="1" parent="1">
          <mxGeometry x="-553" y="1905" width="61" height="30" as="geometry" />
        </mxCell>
        <mxCell id="zQjQIO1lfrHbk5e2Ibf9-215" style="edgeStyle=orthogonalEdgeStyle;rounded=0;orthogonalLoop=1;jettySize=auto;html=1;entryX=0;entryY=0.5;entryDx=0;entryDy=0;entryPerimeter=0;strokeWidth=2;strokeColor=#FFFFFF;flowAnimation=1;" edge="1" parent="1" source="zQjQIO1lfrHbk5e2Ibf9-57" target="zQjQIO1lfrHbk5e2Ibf9-66">
          <mxGeometry relative="1" as="geometry">
            <Array as="points">
              <mxPoint x="74" y="1313" />
            </Array>
          </mxGeometry>
        </mxCell>
        <mxCell id="zQjQIO1lfrHbk5e2Ibf9-217" style="edgeStyle=orthogonalEdgeStyle;rounded=0;orthogonalLoop=1;jettySize=auto;html=1;strokeColor=#FFFFFF;strokeWidth=2;flowAnimation=1;" edge="1" parent="1" source="zQjQIO1lfrHbk5e2Ibf9-216" target="zQjQIO1lfrHbk5e2Ibf9-204">
          <mxGeometry relative="1" as="geometry">
            <Array as="points">
              <mxPoint x="72" y="2040" />
              <mxPoint x="-334" y="2040" />
            </Array>
          </mxGeometry>
        </mxCell>
        <mxCell id="zQjQIO1lfrHbk5e2Ibf9-216" value="" style="sketch=0;points=[[0,0,0],[0.25,0,0],[0.5,0,0],[0.75,0,0],[1,0,0],[0,1,0],[0.25,1,0],[0.5,1,0],[0.75,1,0],[1,1,0],[0,0.25,0],[0,0.5,0],[0,0.75,0],[1,0.25,0],[1,0.5,0],[1,0.75,0]];outlineConnect=0;fontColor=#232F3E;fillColor=#7AA116;strokeColor=#ffffff;dashed=0;verticalLabelPosition=bottom;verticalAlign=top;align=center;html=1;fontSize=12;fontStyle=0;aspect=fixed;shape=mxgraph.aws4.resourceIcon;resIcon=mxgraph.aws4.cloudendure_disaster_recovery;" vertex="1" parent="1">
          <mxGeometry x="49" y="1799" width="47" height="47" as="geometry" />
        </mxCell>
        <mxCell id="zQjQIO1lfrHbk5e2Ibf9-220" style="edgeStyle=orthogonalEdgeStyle;rounded=0;orthogonalLoop=1;jettySize=auto;html=1;strokeWidth=2;strokeColor=#FFFFFF;flowAnimation=1;" edge="1" parent="1">
          <mxGeometry relative="1" as="geometry">
            <mxPoint x="354" y="39" as="sourcePoint" />
            <mxPoint x="800.9999999999995" y="374.5" as="targetPoint" />
          </mxGeometry>
        </mxCell>
        <mxCell id="zQjQIO1lfrHbk5e2Ibf9-219" value="Amazon Route 53" style="sketch=0;outlineConnect=0;fontColor=#232F3E;gradientColor=none;strokeColor=#ffffff;fillColor=#232F3E;dashed=0;verticalLabelPosition=middle;verticalAlign=bottom;align=center;html=1;whiteSpace=wrap;fontSize=10;fontStyle=1;spacing=3;shape=mxgraph.aws4.productIcon;prIcon=mxgraph.aws4.route_53;" vertex="1" parent="1">
          <mxGeometry x="274" y="-16" width="80" height="110" as="geometry" />
        </mxCell>
      </root>
    </mxGraphModel>
  </diagram>
</mxfile>
